<?xml version="1.0" encoding="utf-8"?>
<!-- Svg Vector Icons : http://www.onlinewebfonts.com/icon -->
<!DOCTYPE svg PUBLIC "-//W3C//DTD SVG 1.1//EN" "http://www.w3.org/Graphics/SVG/1.1/DTD/svg11.dtd">
<svg version="1.1" xmlns="http://www.w3.org/2000/svg" xmlns:xlink="http://www.w3.org/1999/xlink" x="0px" y="0px" viewBox="0 0 1000 1000" enable-background="new 0 0 1000 1000" xml:space="preserve">
<metadata> Svg Vector Icons : http://www.onlinewebfonts.com/icon </metadata>
<g><g transform="translate(0.000000,512.000000) scale(0.100000,-0.100000)"><path d="M2536.3,4991.4c-216.4-28.7-358.1-67-367.7-95.8c-3.8-11.5,72.8-113,168.5-229.8c222.2-264.3,317.9-404.1,384.9-564.9c111.1-268.1,143.6-542,111.1-942.2c-30.6-363.9-11.5-496,107.2-739.2c118.7-241.3,239.4-365.8,409.8-419.4c164.7-53.6,402.2-91.9,666.4-109.2c174.3-11.5,218.3-19.1,233.6-46c26.8-51.7,72.8-329.4,105.3-633.9c47.9-457.7,178.1-1926.6,193.4-2165.9l13.4-222.2l-63.2-11.5c-34.5-7.7-279.6-13.4-543.9-13.4c-586-1.9-1522.5-30.6-1566.5-47.9c-61.3-24.9-88.1-270-105.3-949.9l-11.5-549.6l47.9-47.9c63.2-63.2,195.3-101.5,482.6-139.8c128.3-17.2,235.6-34.5,239.4-38.3c1.9-1.9,24.9-275.8,49.8-605.2c47.9-649.2,59.4-702.8,174.3-871.3c74.7-109.2,250.9-239.4,367.7-273.9c187.7-55.5,528.6-65.1,1526.3-44c1061,23,1170.1,32.6,1378.9,128.3c132.1,61.3,208.8,130.2,258.5,235.5c88.1,187.7,168.5,670.3,210.6,1258.2c11.5,157,21.1,287.3,24.9,289.2c1.9,1.9,111.1,17.2,245.1,34.5c327.5,44.1,429,76.6,455.8,143.6c53.6,136,97.7,547.7,97.7,921.2c0,352.4-49.8,532.4-159,589.8c-65.1,32.6-235.5,30.6-1574.2-23c-367.7-15.3-733.5-28.7-812-28.7h-141.7l11.5,800.5c19.2,1237.2,40.2,1428.7,216.4,1938.1c120.6,354.3,137.9,388.8,176.2,371.5c392.6-168.5,1039.9,68.9,1242.9,457.7c49.8,95.8,53.6,116.8,63.2,463.5c13.4,417.5,23,450,183.8,720.1c114.9,189.6,118.7,227.9,26.8,275.8c-80.4,40.2-93.8,38.3-210.7-49.8c-57.4-44-181.9-116.8-277.7-162.8c-147.5-70.8-214.5-90-455.8-130.2c-214.5-34.5-312.2-59.4-406-105.3c-331.3-162.8-559.2-670.3-490.3-1085.8l23-132.1l-222.1-469.2c-122.6-258.5-231.7-476.8-241.3-486.4c-11.5-11.5-17.2-5.7-17.2,19.2c-1.9,19.2-30.6,224.1-65.1,453.9l-63.2,417.5l128.3,128.3c204.9,204.9,298.8,459.6,319.8,867.5c26.8,530.5-113,890.5-499.8,1271.6c-277.7,277.7-687.5,519-1016.9,603.2C3260.2,5025.9,2896.4,5041.2,2536.3,4991.4z M3432.6,4755.9c193.4-51.7,436.6-166.6,568.8-270c457.7-360,710.5-689.4,796.7-1034.1c74.7-294.9-30.6-869.4-195.3-1068.6l-36.4-46l-164.7,189.6c-249,285.3-505.6,561.1-551.5,593.7c-38.3,26.8-46,24.9-82.4-5.8c-21.1-21.1-59.4-72.8-86.2-116.8l-46-78.5l222.1-396.4c120.6-216.4,220.2-400.2,220.2-406c0-5.7-97.7-5.7-214.5-1.9c-333.2,15.3-530.5,114.9-658.8,333.2c-95.8,162.8-107.3,235.5-122.6,764.1c-13.4,406-23,526.6-55.5,655c-59.4,241.3-141.7,434.7-279.6,664.5c-78.5,134.1-118.7,216.4-107.2,227.9C2702.9,4822.9,3191.3,4819.1,3432.6,4755.9z M6713.1,3359.8c-28.7-90-90-400.3-116.8-605.2c-17.2-126.4-49.8-275.8-70.9-333.2c-61.3-162.8-187.7-285.4-344.7-331.3c-78.5-23-474.9-24.9-497.9-1.9c-9.6,9.6,1.9,38.3,24.9,68.9c114.9,147.5,323.6,480.7,323.6,520.9c0,34.5-15.3,47.9-70.9,63.2c-40.2,11.5-105.3,21.1-145.5,21.1c-86.2,0-126.4-36.4-262.4-235.5c-47.9-70.9-93.8-128.3-103.4-128.3c-26.8,0,5.7,333.2,44,461.5c84.3,268.1,237.5,354.3,792.8,448.1c160.9,26.8,317.9,55.5,348.5,65.1C6718.8,3398.1,6724.6,3398.1,6713.1,3359.8z M7360.4-1538.9c24.9-24.9,30.6-80.4,28.7-329.4c0-298.8-19.1-586-38.3-605.2c-13.4-13.4-478.8-44.1-1166.3-78.5c-1225.6-61.3-3303.5-72.8-3431.8-19.1c-30.6,11.5-34.5,46-34.5,304.5c0,289.2,26.8,601.3,55.5,630c26.8,26.8,1466.9,74.7,3209.7,107.3C7299.1-1504.5,7327.8-1504.5,7360.4-1538.9z M6383.7-2900.6l187.7-11.5l-13.4-231.7c-7.7-128.3-19.1-243.2-26.8-256.6c-9.6-17.2-51.7,26.8-128.3,130.2c-128.3,174.3-176.2,201.1-248.9,132.1c-24.9-23-46-53.7-46-65.1c0-13.4,82.3-132.1,183.8-266.2l183.9-245.1l-23-122.5c-13.4-67-30.6-122.6-38.3-122.6c-9.6,0-74.7,74.7-145.5,168.5c-172.4,218.3-273.8,329.4-306.4,329.4c-40.2,0-103.4-70.9-103.4-113c0-21.1,88.1-136,197.3-254.7c229.8-252.8,281.5-317.9,281.5-352.4c0-38.3-95.7-141.7-134-141.7c-36.4,0-118.8,84.3-350.5,360l-149.4,176.2l-53.6-26.8c-111.1-59.4-109.2-70.9,34.5-239.4c174.3-201.1,231.7-277.7,231.7-304.5c0-15.3-47.9-23-141.7-23h-143.6l-90,118.7c-162.8,216.4-193.4,243.2-266.2,226c-128.3-28.7-132.1-51.7-38.3-199.2c114.9-180,168.5-168.5-674.1-160.9c-723.9,5.7-745,7.7-821.6,47.9c-99.6,53.6-174.3,139.8-197.3,231.7c-11.5,38.3-42.1,310.2-70.9,605.2c-40.2,427.1-46,536.2-26.8,547.7c67,42.1,794.8,68.9,1943.8,72.8C5832.2-2889.1,6278.4-2892.9,6383.7-2900.6z"/><path d="M2938.5-1853c-7.7-32.6-7.7-141.7,0-241.3c13.4-166.6,17.2-181.9,57.5-191.5c24.9-5.7,65.1-7.7,88.1-3.8c46,5.7,46,7.7,44,233.7c-3.8,247-9.6,260.4-116.8,260.4C2959.6-1795.6,2950-1803.2,2938.5-1853z"/><path d="M3834.7-3224.2c-15.3-42.1,11.5-593.7,32.6-651.1c19.2-51.7,76.6-59.4,164.7-26.8l51.7,21.1l-11.5,159c-17.2,224-68.9,496-95.8,513.2C3936.2-3182.1,3848.2-3191.7,3834.7-3224.2z"/></g></g>
</svg>